<svg width="128" height="22" viewBox="0 0 128 22" fill="none" xmlns="http://www.w3.org/2000/svg">
<path fill-rule="evenodd" clip-rule="evenodd" d="M8.036 1.65492C9.2316 1.82596 10.0031 3.35502 9.75369 5.09836C9.50429 6.84171 8.33502 8.09312 7.13943 7.92208C5.94383 7.75104 5.17671 6.21126 5.42452 4.47904C5.67233 2.74681 6.8404 1.48388 8.036 1.65492V1.65492Z" fill="#CAFF53"/>
<path fill-rule="evenodd" clip-rule="evenodd" d="M16.7446 2.90074C17.9402 3.07178 18.7089 4.60044 18.4595 6.34379C18.2101 8.08713 17.0436 9.33894 15.848 9.1679C14.6524 8.99686 13.8809 7.46781 14.1303 5.72446C14.3797 3.98111 15.549 2.7297 16.7446 2.90074Z" fill="#CAFF53"/>
<path d="M1.78145 11.6982C2.3454 12.6987 3.06074 13.606 3.90207 14.3878C5.74267 16.0861 8.06855 17.1659 10.5537 17.4759C12.9755 17.8109 15.4408 17.3556 17.5832 16.1776C18.4733 15.6732 19.2812 15.0358 19.9788 14.2873C19.9918 14.2776 20.0082 14.2734 20.0244 14.2757C20.0405 14.278 20.0551 14.2866 20.065 14.2996L20.6519 15.056C20.6607 15.0684 20.6644 15.0837 20.6623 15.0987C20.6601 15.1137 20.6523 15.1273 20.6404 15.1367C19.4297 16.6827 17.8817 17.9316 16.1145 18.7878C14.3036 19.6648 12.2802 20.0072 10.2815 19.775C8.25385 19.5177 6.33858 18.6982 4.75231 17.4092C3.08926 16.039 1.76012 14.3079 0.865726 12.3475C0.858756 12.3351 0.856069 12.3207 0.858083 12.3066C0.860097 12.2926 0.866698 12.2796 0.876863 12.2696L1.67698 11.6747C1.68357 11.6695 1.69115 11.6657 1.69927 11.6634C1.7074 11.6612 1.71588 11.6607 1.72421 11.6619C1.73254 11.6631 1.74054 11.666 1.74772 11.6704C1.7549 11.6748 1.76111 11.6806 1.76596 11.6875V11.6875L1.78145 11.6982Z" fill="#CAFF53"/>
<g clip-path="url(#clip0_129_1459)">
<path d="M32.3973 16.7731C33.9496 16.7731 34.7512 16.1035 35.086 14.5207L36.1919 9.30561H36.2731L37.3892 14.4802C37.7341 16.0832 38.5458 16.7731 40.1286 16.7731C41.6404 16.7731 42.4115 16.0731 42.858 14.5004L44.6639 8.15912C44.8263 7.57065 44.9074 7.22568 44.9074 6.80969C44.9074 5.80523 44.0957 5.06456 42.9695 5.06456C41.9448 5.06456 41.2346 5.74435 41.0316 6.81984L39.875 12.877H39.7938L38.6372 7.00247C38.3937 5.74435 37.5718 5.06456 36.3238 5.06456C35.0657 5.06456 34.2541 5.74435 34.0106 6.99232L32.864 12.877H32.7828L31.6363 6.86042C31.4233 5.7545 30.7029 5.06456 29.6578 5.06456C28.5113 5.06456 27.6591 5.81537 27.6591 6.84013C27.6591 7.26626 27.7402 7.61123 27.9127 8.20984L29.7187 14.5207C30.1651 16.0731 30.916 16.7731 32.3973 16.7731ZM51.3198 16.8036C53.6026 16.8036 55.4898 16.0325 56.2406 14.7845C56.4233 14.4903 56.5146 14.1859 56.5146 13.8714C56.5146 12.9785 55.7942 12.4611 54.9926 12.4611C54.4854 12.4611 54.1607 12.593 53.7244 12.9785C52.933 13.6786 52.2837 13.9526 51.3807 13.9526C50.2646 13.9526 49.4731 13.1611 49.4731 12.0654V11.8016H55.297C56.332 11.8016 56.9002 11.2537 56.9002 10.2594C56.9002 7.24597 54.6578 5.03412 51.1879 5.03412C47.6672 5.03412 45.4655 7.31699 45.4655 10.9798C45.4655 14.6222 47.6469 16.8036 51.3198 16.8036ZM49.5341 9.54912C49.6152 8.58523 50.3356 7.89535 51.2792 7.89535C52.2532 7.89535 52.9533 8.54471 53.0243 9.54912H49.5341ZM60.2991 16.7731C61.5166 16.7731 62.379 16.0934 62.379 14.6222V14.5816H62.4602C62.9776 15.8904 64.1952 16.6818 65.8389 16.6818C68.629 16.6818 70.1814 14.612 70.1814 10.9189C70.1814 7.21554 68.6189 5.15587 65.7881 5.15587C64.185 5.15587 62.9878 5.96756 62.4602 7.33729H62.379V3.78615C62.379 2.30482 61.5166 1.62503 60.2991 1.62503C59.0815 1.62503 58.2191 2.30482 58.2191 3.776V14.6222C58.2191 16.0934 59.0815 16.7731 60.2991 16.7731ZM64.1444 13.4757C63.0487 13.4757 62.3689 12.5118 62.3587 10.929C62.3689 9.36652 63.0588 8.36204 64.1444 8.36204C65.2199 8.36204 65.92 9.36652 65.92 10.9189C65.92 12.4813 65.2301 13.4757 64.1444 13.4757ZM77.03 16.8036C79.3129 16.8036 81.2 16.0325 81.9509 14.7845C82.1335 14.4903 82.2248 14.1859 82.2248 13.8714C82.2248 12.9785 81.5044 12.4611 80.7029 12.4611C80.1956 12.4611 79.8709 12.593 79.4346 12.9785C78.6432 13.6786 77.9939 13.9526 77.0909 13.9526C75.9748 13.9526 75.1834 13.1611 75.1834 12.0654V11.8016H81.0073C82.0422 11.8016 82.6104 11.2537 82.6104 10.2594C82.6104 7.24597 80.3681 5.03412 76.8981 5.03412C73.3774 5.03412 71.1757 7.31699 71.1757 10.9798C71.1757 14.6222 73.3571 16.8036 77.03 16.8036ZM75.2443 9.54912C75.3255 8.58523 76.0458 7.89535 76.9894 7.89535C77.9634 7.89535 78.6635 8.54471 78.7346 9.54912H75.2443ZM86.0093 16.7731C87.2268 16.7731 88.0893 16.0934 88.0893 14.6222V3.78615C88.0893 2.30482 87.2268 1.62503 86.0093 1.62503C84.7918 1.62503 83.9294 2.30482 83.9294 3.776V14.6222C83.9294 16.0934 84.7918 16.7731 86.0093 16.7731ZM95.3029 16.8036C98.9659 16.8036 101.198 14.7033 101.198 10.9087C101.198 7.20539 98.9152 5.03412 95.3029 5.03412C91.7114 5.03412 89.4184 7.22568 89.4184 10.9087C89.4184 14.6932 91.6506 16.8036 95.3029 16.8036ZM95.3029 13.8308C94.2581 13.8308 93.6392 12.7959 93.6392 10.9189C93.6392 9.09256 94.2886 8.00691 95.3029 8.00691C96.3276 8.00691 96.9769 9.09256 96.9769 10.9189C96.9769 12.7959 96.338 13.8308 95.3029 13.8308ZM104.567 16.7731C105.784 16.7731 106.646 16.0934 106.646 14.6222V10.2594C106.646 9.21432 107.245 8.45334 108.23 8.45334C109.274 8.45334 109.802 9.14328 109.802 10.2695V14.6222C109.802 16.0934 110.665 16.7731 111.882 16.7731C113.1 16.7731 113.962 16.0934 113.962 14.6222V9.3462C113.962 6.6575 112.582 5.095 110.066 5.095C108.361 5.095 107.296 5.84581 106.728 7.41846H106.646V7.1648C106.646 5.82552 105.804 5.06456 104.505 5.06456C103.207 5.06456 102.487 5.82552 102.487 7.15465V14.6222C102.487 16.0934 103.349 16.7731 104.567 16.7731ZM120.922 20.7302C124.93 20.7302 127.152 19.0256 127.152 15.8803V7.14451C127.152 5.69361 126.289 5.06456 125.092 5.06456C123.905 5.06456 122.992 5.69361 122.992 7.14451V7.33729H122.911C122.474 6.07917 121.257 5.15587 119.624 5.15587C116.762 5.15587 115.189 7.08363 115.189 10.5942C115.189 13.9627 116.833 15.9818 119.563 15.9818C121.237 15.9818 122.515 15.1599 122.88 13.983H122.961V15.789C122.961 16.9254 122.191 17.6356 120.831 17.6356C119.938 17.6356 119.146 17.1993 118.436 16.6616C118.051 16.3673 117.604 16.2151 117.128 16.2151C116.123 16.2151 115.504 16.8442 115.504 17.6356C115.504 17.9501 115.565 18.285 115.748 18.6096C116.417 19.746 118.243 20.7302 120.922 20.7302ZM121.226 13.1206C120.1 13.1206 119.451 12.2785 119.451 10.6652C119.451 9.08243 120.111 8.10841 121.226 8.10841C122.343 8.10841 123.012 9.08243 123.012 10.6754C123.012 12.2886 122.353 13.1206 121.226 13.1206Z" fill="#CAFF53"/>
</g>
<defs>
<clipPath id="clip0_129_1459">
<rect width="100" height="19.4805" fill="white" transform="translate(27.2938 1.25977)"/>
</clipPath>
</defs>
</svg>
